Rokkitt-Semi-Bold.ufo
<glyph name="numbersign" format="1">
  <advance width="1133"/>
  <unicode hex="0023"/>
  <outline>
    <contour>
      <point x="190" y="-8" type="line"/>
      <point x="310" y="-8" type="line"/>
      <point x="360" y="352" type="line"/>
      <point x="691" y="352" type="line"/>
      <point x="642" y="-8" type="line"/>
      <point x="763" y="-8" type="line"/>
      <point x="812" y="352" type="line"/>
      <point x="1045" y="352" type="line"/>
      <point x="1045" y="455" type="line"/>
      <point x="831" y="455" type="line"/>
      <point x="872" y="765" type="line"/>
      <point x="1065" y="765" type="line"/>
      <point x="1065" y="870" type="line"/>
      <point x="890" y="870" type="line"/>
      <point x="939" y="1211" type="line"/>
      <point x="817" y="1211" type="line"/>
      <point x="769" y="870" type="line"/>
      <point x="439" y="870" type="line"/>
      <point x="487" y="1211" type="line"/>
      <point x="365" y="1211" type="line"/>
      <point x="318" y="870" type="line"/>
      <point x="93" y="870" type="line"/>
      <point x="93" y="765" type="line"/>
      <point x="298" y="765" type="line"/>
      <point x="258" y="455" type="line"/>
      <point x="72" y="455" type="line"/>
      <point x="71" y="352" type="line"/>
      <point x="238" y="352" type="line"/>
    </contour>
    <contour>
      <point x="378" y="455" type="line"/>
      <point x="419" y="765" type="line"/>
      <point x="750" y="765" type="line"/>
      <point x="709" y="455" type="line"/>
    </contour>
  </outline>
</glyph>
<glyph name="parenleft" format="1">
  <advance width="567"/>
  <unicode hex="0028"/>
  <outline>
    <contour>
      <point x="502" y="-121" type="curve"/>
      <point x="503" y="-22" type="line"/>
      <point x="353" y="55"/>
      <point x="277" y="291"/>
      <point x="277" y="528" type="curve" smooth="yes"/>
      <point x="277" y="763"/>
      <point x="353" y="1000"/>
      <point x="503" y="1076" type="curve"/>
      <point x="502" y="1173" type="line"/>
      <point x="231" y="1066"/>
      <point x="94" y="795"/>
      <point x="94" y="525" type="curve" smooth="yes"/>
      <point x="94" y="255"/>
      <point x="230" y="-15"/>
    </contour>
  </outline>
</glyph>
<glyph name="plus" format="1">
  <advance width="932"/>
  <unicode hex="002B"/>
  <outline>
    <contour>
      <point x="411" y="115" type="line"/>
      <point x="534" y="115" type="line"/>
      <point x="534" y="520" type="line"/>
      <point x="892" y="520" type="line"/>
      <point x="892" y="637" type="line"/>
      <point x="534" y="637" type="line"/>
      <point x="534" y="1036" type="line"/>
      <point x="411" y="1036" type="line"/>
      <point x="411" y="637" type="line"/>
      <point x="52" y="637" type="line"/>
      <point x="52" y="520" type="line"/>
      <point x="411" y="520" type="line"/>
    </contour>
  </outline>
</glyph>
<glyph name="two" format="1">
  <advance width="1012"/>
  <unicode hex="0032"/>
  <outline>
    <contour>
      <point x="131" y="0" type="line"/>
      <point x="890" y="0" type="line"/>
      <point x="889" y="333" type="line"/>
      <point x="764" y="333" type="line"/>
      <point x="763" y="120" type="line"/>
      <point x="312" y="120" type="line"/>
      <point x="589" y="397" type="line" smooth="yes"/>
      <point x="734" y="542"/>
      <point x="883" y="680"/>
      <point x="883" y="839" type="curve" smooth="yes"/>
      <point x="883" y="1042"/>
      <point x="748" y="1174"/>
      <point x="506" y="1174" type="curve" smooth="yes"/>
      <point x="275" y="1174"/>
      <point x="130" y="1040"/>
      <point x="130" y="837" type="curve" smooth="yes"/>
      <point x="130" y="794"/>
      <point x="138" y="746"/>
      <point x="153" y="698" type="curve"/>
      <point x="287" y="698" type="line"/>
      <point x="276" y="744"/>
      <point x="270" y="786"/>
      <point x="270" y="819" type="curve" smooth="yes"/>
      <point x="270" y="968"/>
      <point x="363" y="1048"/>
      <point x="507" y="1048" type="curve" smooth="yes"/>
      <point x="664" y="1048"/>
      <point x="727" y="953"/>
      <point x="730" y="837" type="curve" smooth="yes"/>
      <point x="734" y="736"/>
      <point x="621" y="621"/>
      <point x="493" y="492" type="curve" smooth="yes"/>
      <point x="131" y="122" type="line"/>
    </contour>
  </outline>
</glyph>
<glyph name="semicolon" format="1">
  <advance width="452"/>
  <unicode hex="003B"/>
  <outline>
    <contour>
      <point x="119" y="-99" type="line"/>
      <point x="284" y="-97"/>
      <point x="328" y="-8"/>
      <point x="328" y="138" type="curve"/>
      <point x="328" y="335" type="line"/>
      <point x="125" y="334" type="line"/>
      <point x="125" y="138" type="line"/>
      <point x="227" y="138" type="line"/>
      <point x="227" y="38"/>
      <point x="211" y="-5"/>
      <point x="119" y="-18" type="curve"/>
    </contour>
    <contour>
      <point x="125" y="653" type="line"/>
      <point x="325" y="653" type="line"/>
      <point x="325" y="850" type="line"/>
      <point x="125" y="850" type="line"/>
    </contour>
  </outline>
</glyph>
<glyph name="question" format="1">
  <advance width="784"/>
  <unicode hex="003F"/>
  <outline>
    <contour>
      <point x="302" y="322" type="curve"/>
      <point x="406" y="322" type="line"/>
      <point x="440" y="710"/>
      <point x="738" y="606"/>
      <point x="738" y="912" type="curve" smooth="yes"/>
      <point x="738" y="1097"/>
      <point x="594" y="1215"/>
      <point x="396" y="1215" type="curve" smooth="yes"/>
      <point x="212" y="1215"/>
      <point x="50" y="1135"/>
      <point x="45" y="907" type="curve"/>
      <point x="175" y="907" type="line"/>
      <point x="184" y="1044"/>
      <point x="257" y="1110"/>
      <point x="397" y="1110" type="curve" smooth="yes"/>
      <point x="518" y="1110"/>
      <point x="602" y="1032"/>
      <point x="602" y="912" type="curve" smooth="yes"/>
      <point x="602" y="677"/>
      <point x="314" y="772"/>
    </contour>
    <contour>
      <point x="356" y="-15" type="curve" smooth="yes"/>
      <point x="419" y="-15"/>
      <point x="468" y="31"/>
      <point x="468" y="91" type="curve" smooth="yes"/>
      <point x="468" y="149"/>
      <point x="419" y="195"/>
      <point x="356" y="195" type="curve"/>
      <point x="294" y="195"/>
      <point x="245" y="149"/>
      <point x="245" y="91" type="curve" smooth="yes"/>
      <point x="245" y="31"/>
      <point x="294" y="-15"/>
    </contour>
  </outline>
</glyph>
<glyph name="K" format="1">
  <advance width="1297"/>
  <unicode hex="004B"/>
  <outline>
    <contour>
      <point x="650" y="1152" type="move" name="top"/>
    </contour>
    <contour>
      <point x="649" y="0" type="move" name="bot"/>
    </contour>
    <contour>
      <point x="746" y="0" type="line"/>
      <point x="1240" y="0" type="line"/>
      <point x="1240" y="109" type="line"/>
      <point x="1085" y="109" type="line"/>
      <point x="577" y="582" type="line"/>
      <point x="1078" y="1044" type="line"/>
      <point x="1228" y="1044" type="line"/>
      <point x="1228" y="1152" type="line"/>
      <point x="751" y="1152" type="line"/>
      <point x="751" y="1044" type="line"/>
      <point x="883" y="1044" type="line"/>
      <point x="377" y="576" type="line"/>
      <point x="880" y="109" type="line"/>
      <point x="746" y="109" type="line"/>
    </contour>
    <component base="uc_main_stem" xOffset="-44"/>
  </outline>
</glyph>
<glyph name="P" format="1">
  <advance width="1152"/>
  <unicode hex="0050"/>
  <outline>
    <contour>
      <point x="595" y="1152" type="move" name="top"/>
    </contour>
    <contour>
      <point x="485" y="477" type="line"/>
      <point x="639" y="477" type="line" smooth="yes"/>
      <point x="926" y="477"/>
      <point x="1081" y="600"/>
      <point x="1081" y="825" type="curve" smooth="yes"/>
      <point x="1081" y="1038"/>
      <point x="930" y="1152"/>
      <point x="649" y="1152" type="curve" smooth="yes"/>
      <point x="329" y="1152" type="line"/>
      <point x="329" y="1044" type="line"/>
      <point x="668" y="1044" type="line" smooth="yes"/>
      <point x="823" y="1044"/>
      <point x="908" y="967"/>
      <point x="909" y="825" type="curve" smooth="yes"/>
      <point x="909" y="670"/>
      <point x="812" y="585"/>
      <point x="633" y="585" type="curve" smooth="yes"/>
      <point x="485" y="585" type="line"/>
    </contour>
    <component base="uc_main_stem" xOffset="-44"/>
  </outline>
</glyph>
<glyph name="V" format="1">
  <advance width="1323"/>
  <unicode hex="0056"/>
  <outline>
    <contour>
      <point x="592" y="0" type="line"/>
      <point x="738" y="0" type="line"/>
      <point x="1146" y="1044" type="line"/>
      <point x="1288" y="1044" type="line"/>
      <point x="1288" y="1152" type="line"/>
      <point x="849" y="1152" type="line"/>
      <point x="849" y="1044" type="line"/>
      <point x="997" y="1044" type="line"/>
      <point x="676" y="183" type="line"/>
      <point x="351" y="1044" type="line"/>
      <point x="502" y="1044" type="line"/>
      <point x="502" y="1152" type="line"/>
      <point x="33" y="1152" type="line"/>
      <point x="33" y="1044" type="line"/>
      <point x="179" y="1044" type="line"/>
    </contour>
  </outline>
</glyph>
<glyph name="backslash" format="1">
  <advance width="630"/>
  <unicode hex="005C"/>
  <outline>
    <contour>
      <point x="490" y="-21" type="line"/>
      <point x="624" y="-21" type="line"/>
      <point x="135" y="1208" type="line"/>
      <point x="3" y="1208" type="line"/>
    </contour>
  </outline>
</glyph>
<glyph name="asciicircum" format="1">
  <advance width="926"/>
  <unicode hex="005E"/>
  <outline>
    <contour>
      <point x="75" y="660" type="line"/>
      <point x="215" y="660" type="line"/>
      <point x="466" y="1126" type="line"/>
      <point x="710" y="660" type="line"/>
      <point x="849" y="660" type="line"/>
      <point x="535" y="1250" type="line"/>
      <point x="396" y="1250" type="line"/>
    </contour>
  </outline>
</glyph>
<glyph name="d" format="1">
  <advance width="1050"/>
  <unicode hex="0064"/>
  <outline>
    <contour>
      <point x="368" y="804" type="move" name="top"/>
    </contour>
    <contour>
      <point x="984" y="804" type="move" name="caron.alt"/>
    </contour>
    <contour>
      <point x="793" y="942" type="move" name="mid"/>
    </contour>
    <component base="lc_ascender_stem_2" xOffset="468"/>
    <component base="lc_bowl_left" xOffset="-93"/>
  </outline>
</glyph>
<glyph name="h" format="1">
  <advance width="1065"/>
  <unicode hex="0068"/>
  <outline>
    <contour>
      <point x="617" y="1061" type="move" name="top"/>
    </contour>
    <contour>
      <point x="266" y="936" type="move" name="mid"/>
    </contour>
    <component base="lc_xheight_curved_stem" xOffset="-86"/>
    <component base="lc_ascender_stem" xOffset="-64"/>
  </outline>
</glyph>
<glyph name="r" format="1">
  <advance width="790"/>
  <unicode hex="0072"/>
  <outline>
    <contour>
      <point x="462" y="804" type="move" name="top"/>
    </contour>
    <contour>
      <point x="303" y="0" type="move" name="bot"/>
    </contour>
    <contour>
      <point x="378" y="433" type="line"/>
      <point x="378" y="592"/>
      <point x="465" y="683"/>
      <point x="569" y="683" type="curve" smooth="yes"/>
      <point x="618" y="683"/>
      <point x="664" y="668"/>
      <point x="711" y="637" type="curve"/>
      <point x="747" y="774" type="line"/>
      <point x="692" y="800"/>
      <point x="638" y="816"/>
      <point x="583" y="816" type="curve" smooth="yes"/>
      <point x="479" y="816"/>
      <point x="385" y="748"/>
      <point x="342" y="542" type="curve"/>
    </contour>
    <component base="lc_xheight_stem" xOffset="-51"/>
  </outline>
</glyph>
<glyph name="braceleft" format="1">
  <advance width="580"/>
  <unicode hex="007B"/>
  <outline>
    <contour>
      <point x="454" y="-134" type="curve" smooth="yes"/>
      <point x="528" y="-134" type="line"/>
      <point x="528" y="-31" type="line"/>
      <point x="363" y="-31"/>
      <point x="352" y="-5"/>
      <point x="352" y="192" type="curve" smooth="yes"/>
      <point x="352" y="424"/>
      <point x="328" y="527"/>
      <point x="213" y="569" type="curve"/>
      <point x="339" y="616"/>
      <point x="353" y="720"/>
      <point x="353" y="992" type="curve" smooth="yes"/>
      <point x="353" y="1145"/>
      <point x="385" y="1168"/>
      <point x="528" y="1168" type="curve"/>
      <point x="528" y="1272" type="line"/>
      <point x="453" y="1272" type="line"/>
      <point x="219" y="1272"/>
      <point x="218" y="1116"/>
      <point x="218" y="888" type="curve" smooth="yes"/>
      <point x="218" y="715"/>
      <point x="201" y="629"/>
      <point x="63" y="629" type="curve"/>
      <point x="63" y="509" type="line"/>
      <point x="203" y="509"/>
      <point x="218" y="425"/>
      <point x="218" y="252" type="curve" smooth="yes"/>
      <point x="218" y="16"/>
      <point x="221" y="-134"/>
    </contour>
  </outline>
</glyph>
<glyph name="guillemotleft" format="1">
  <advance width="891"/>
  <unicode hex="00AB"/>
  <outline>
    <contour>
      <point x="336" y="193" type="line"/>
      <point x="446" y="193" type="line"/>
      <point x="237" y="593" type="line"/>
      <point x="446" y="992" type="line"/>
      <point x="336" y="992" type="line"/>
      <point x="38" y="592" type="line"/>
    </contour>
    <contour>
      <point x="716" y="193" type="line"/>
      <point x="826" y="193" type="line"/>
      <point x="616" y="593" type="line"/>
      <point x="826" y="992" type="line"/>
      <point x="716" y="992" type="line"/>
      <point x="418" y="592" type="line"/>
    </contour>
  </outline>
</glyph>
<glyph name="dotaccent" format="1">
  <advance width="374"/>
  <unicode hex="02D9"/>
  <outline>
    <contour>
      <point x="192" y="804" type="move" name="_top"/>
    </contour>
    <contour>
      <point x="192" y="982" type="curve" smooth="yes"/>
      <point x="255" y="982"/>
      <point x="303" y="1027"/>
      <point x="303" y="1086" type="curve" smooth="yes"/>
      <point x="303" y="1144"/>
      <point x="255" y="1190"/>
      <point x="192" y="1190" type="curve"/>
      <point x="131" y="1190"/>
      <point x="82" y="1144"/>
      <point x="82" y="1086" type="curve" smooth="yes"/>
      <point x="82" y="1027"/>
      <point x="131" y="982"/>
    </contour>
  </outline>
</glyph>
<glyph name="dblgravecmb" format="1">
  <advance width="667"/>
  <unicode hex="030F"/>
  <outline>
    <contour>
      <point x="408" y="804" type="move" name="_top"/>
    </contour>
    <contour>
      <point x="196" y="976" type="line"/>
      <point x="292" y="976" type="line"/>
      <point x="177" y="1289" type="line"/>
      <point x="5" y="1289" type="line"/>
    </contour>
    <contour>
      <point x="474" y="976" type="line"/>
      <point x="570" y="976" type="line"/>
      <point x="455" y="1289" type="line"/>
      <point x="283" y="1289" type="line"/>
    </contour>
  </outline>
</glyph>
<glyph name="Delta" format="1">
  <advance width="1167"/>
  <unicode hex="0394"/>
  <outline>
    <contour>
      <point x="84" y="0" type="line"/>
      <point x="1083" y="0" type="line"/>
      <point x="1083" y="67" type="line"/>
      <point x="649" y="1152" type="line"/>
      <point x="508" y="1152" type="line"/>
      <point x="84" y="67" type="line"/>
    </contour>
    <contour>
      <point x="227" y="112" type="line"/>
      <point x="558" y="991" type="line"/>
      <point x="893" y="112" type="line"/>
    </contour>
  </outline>
</glyph>
<glyph name="dagger" format="1">
  <advance width="692"/>
  <unicode hex="2020"/>
  <outline>
    <contour>
      <point x="311" y="-131" type="curve"/>
      <point x="379" y="-131" type="line"/>
      <point x="379" y="190"/>
      <point x="415" y="395"/>
      <point x="437" y="560" type="curve"/>
      <point x="437" y="599"/>
      <point x="387" y="743"/>
      <point x="379" y="788" type="curve"/>
      <point x="642" y="751" type="line"/>
      <point x="642" y="900" type="line"/>
      <point x="379" y="868" type="line"/>
      <point x="431" y="1186" type="line"/>
      <point x="261" y="1186" type="line"/>
      <point x="311" y="868" type="line"/>
      <point x="47" y="900" type="line"/>
      <point x="47" y="751" type="line"/>
      <point x="311" y="788" type="line"/>
      <point x="302" y="743"/>
      <point x="255" y="598"/>
      <point x="255" y="558" type="curve"/>
      <point x="275" y="392"/>
      <point x="311" y="188"/>
    </contour>
  </outline>
</glyph>
<glyph name="lc_ascender_stem" format="1">
  <advance width="1205"/>
  <outline>
    <contour>
      <point x="106" y="0" type="line"/>
      <point x="539" y="0" type="line"/>
      <point x="539" y="108" type="line"/>
      <point x="408" y="108" type="line"/>
      <point x="408" y="1174" type="line"/>
      <point x="110" y="1174" type="line"/>
      <point x="110" y="1066" type="line"/>
      <point x="257" y="1066" type="line"/>
      <point x="257" y="108" type="line"/>
      <point x="106" y="108" type="line"/>
    </contour>
  </outline>
</glyph>
<glyph name="lc_bowl_left" format="1">
  <advance width="1235"/>
  <outline>
    <contour>
      <point x="562" y="-22" type="curve" smooth="yes"/>
      <point x="681" y="-22"/>
      <point x="809" y="30"/>
      <point x="898" y="127" type="curve"/>
      <point x="898" y="230" type="line"/>
      <point x="814" y="143"/>
      <point x="696" y="93"/>
      <point x="593" y="93" type="curve" smooth="yes"/>
      <point x="434" y="93"/>
      <point x="308" y="199"/>
      <point x="308" y="391" type="curve" smooth="yes"/>
      <point x="308" y="599"/>
      <point x="421" y="711"/>
      <point x="576" y="711" type="curve" smooth="yes"/>
      <point x="680" y="711"/>
      <point x="800" y="661"/>
      <point x="895" y="576" type="curve"/>
      <point x="895" y="678" type="line"/>
      <point x="804" y="773"/>
      <point x="670" y="825"/>
      <point x="546" y="825" type="curve" smooth="yes"/>
      <point x="331" y="825"/>
      <point x="149" y="675"/>
      <point x="150" y="401" type="curve" smooth="yes"/>
      <point x="151" y="135"/>
      <point x="342" y="-22"/>
    </contour>
  </outline>
</glyph>
<glyph name="uniFB03" format="1">
  <advance width="1857"/>
  <outline>
    <contour>
      <point x="119" y="0" type="line"/>
      <point x="604" y="0" type="line"/>
      <point x="604" y="109" type="line"/>
      <point x="424" y="109" type="line"/>
      <point x="424" y="696" type="line"/>
      <point x="824" y="696" type="line"/>
      <point x="824" y="804" type="line"/>
      <point x="424" y="804" type="line"/>
      <point x="424" y="982" type="line" smooth="yes"/>
      <point x="424" y="1078"/>
      <point x="515" y="1132"/>
      <point x="637" y="1132" type="curve" smooth="yes"/>
      <point x="724" y="1132"/>
      <point x="828" y="1098"/>
      <point x="911" y="1035" type="curve"/>
      <point x="1011" y="1056" type="line"/>
      <point x="920" y="1174"/>
      <point x="764" y="1232"/>
      <point x="620" y="1232" type="curve" smooth="yes"/>
      <point x="432" y="1232"/>
      <point x="272" y="1142"/>
      <point x="272" y="983" type="curve" smooth="yes"/>
      <point x="272" y="804" type="line"/>
      <point x="115" y="804" type="line"/>
      <point x="115" y="696" type="line"/>
      <point x="272" y="696" type="line"/>
      <point x="272" y="109" type="line"/>
      <point x="119" y="109" type="line"/>
    </contour>
    <component base="fi" xOffset="642"/>
  </outline>
</glyph>
